<svg width="27px" height="27px" viewBox="0 0 27 27" version="1.1" xmlns="http://www.w3.org/2000/svg" xmlns:xlink="http://www.w3.org/1999/xlink">
    <defs>
        <path d="M22.6300726,14.3823238 C21.03822,20.5292825 14.7646745,24.2218777 8.61769209,22.6300726 C2.47073341,21.03822 -1.22190929,14.7646745 0.369943294,8.61769209 C1.96179588,2.47073341 8.23534139,-1.22190929 14.3823238,0.369943294 C20.5292825,1.96179588 24.2218777,8.23534139 22.6300726,14.3823238" id="path-1"></path>
    </defs>
    <g id="Login-Authentication" stroke="none" stroke-width="1" fill="none" fill-rule="evenodd">
        <g id="Login" transform="translate(-700.000000, -117.000000)">
            <g id="Form" transform="translate(537.000000, 115.000000)">
                <g id="logo" transform="translate(161.000000, 0.000000)">
                    <circle id="Oval-3" fill="#FFFFFF" cx="15.5" cy="15.5" r="13.5"></circle>
                    <g id="shape" transform="translate(15.500000, 15.500000) rotate(20.000000) translate(-15.500000, -15.500000) translate(4.000000, 4.000000)">
                        <mask id="mask-2" fill="white">
                            <use xlink:href="#path-1"></use>
                        </mask>
                        <use id="Mask" fill="#0075C4" xlink:href="#path-1"></use>
                        <path d="M18.3350915,9.11880982 C15.2477553,8.33612331 12.2470689,9.58369205 11.6329292,11.9053224 L22.8132173,14.7396926 C23.427357,12.4180389 21.4224516,9.90149633 18.3350915,9.11880982" id="Fill-3" fill="#FFFFFF" mask="url(#mask-2)"></path>
                        <path d="M13.9845192,17.5748855 C14.7672057,14.4875512 13.5196369,11.4868905 11.1980066,10.8727273 L8.36363636,22.0530087 C10.6852901,22.6671719 13.2018327,20.6622438 13.9845192,17.5748855" id="Fill-4" fill="#FFFFFF" mask="url(#mask-2)"></path>
                        <path d="M11.2909091,10.7798247 L0.524712169,7.94545455 C-0.0667042465,10.2671083 1.86396727,12.7836508 4.83697891,13.5663373 C7.80996755,14.3490239 10.6994927,13.1014551 11.2909091,10.7798247 Z" id="Fill-5" fill="#FFFFFF" mask="url(#mask-2)"></path>
                        <path d="M11.3838237,11.2909091 L14.2181818,0.524712169 C11.8965422,-0.0667042465 9.37998959,1.86396727 8.59729995,4.83697891 C7.81461031,7.80996755 9.06218404,10.6994927 11.3838237,11.2909091 Z" id="Fill-6" fill="#FFFFFF" mask="url(#mask-2)"></path>
                    </g>
                </g>
            </g>
        </g>
    </g>
</svg>
